<?xml version="1.0" encoding="UTF-8"?>
<svg version="1.1" xmlns="http://www.w3.org/2000/svg" width="100" height="100">
<path d="M0 0 C1.80187563 2.70281344 2.49132793 4.29233453 3.2890625 7.34375 C3.50820313 8.17777344 3.72734375 9.01179688 3.953125 9.87109375 C4.17484375 10.73863281 4.3965625 11.60617188 4.625 12.5 C4.85445312 13.36753906 5.08390625 14.23507813 5.3203125 15.12890625 C7 21.59770275 7 21.59770275 7 25 C1.47324097 24.36145015 -3.62367351 23.06306646 -8.9375 21.4375 C-9.71673828 21.20353516 -10.49597656 20.96957031 -11.29882812 20.72851562 C-13.20057187 20.15682579 -15.10048226 19.57904309 -17 19 C-17 16 -17 16 -15.05859375 13.73046875 C-14.19363281 12.89128906 -13.32867187 12.05210938 -12.4375 11.1875 C-11.53128906 10.30707031 -10.62507813 9.42664062 -9.69140625 8.51953125 C-6.5398778 5.56926151 -3.32786101 2.74910257 0 0 Z " fill="#000000" transform="translate(57,45)"/>
<path d="M0 0 C7.05909078 1.12276571 14.03843148 2.37563401 21 4 C21 7.55137876 20.26476742 8.4010007 18.2265625 11.23046875 C17.6490625 12.03291016 17.0715625 12.83535156 16.4765625 13.66210938 C15.86554688 14.49548828 15.25453125 15.32886719 14.625 16.1875 C14.02171875 17.03248047 13.4184375 17.87746094 12.796875 18.74804688 C9.42466215 23.3904599 9.42466215 23.3904599 8 25 C7.34 25 6.68 25 6 25 C4.99131083 21.58583753 3.99457679 18.16829771 3 14.75 C2.71382812 13.78191406 2.42765625 12.81382813 2.1328125 11.81640625 C1.86210938 10.88183594 1.59140625 9.94726562 1.3125 8.984375 C0.93544922 7.69611816 0.93544922 7.69611816 0.55078125 6.38183594 C0 4 0 4 0 0 Z " fill="#000000" transform="translate(61,44)"/>
<path d="M0 0 C4.46715914 0.89343183 8.19614401 2.23536361 12.3125 4.0625 C13.28026367 4.48499023 13.28026367 4.48499023 14.26757812 4.91601562 C15.84698358 5.6062743 17.42376493 6.30253198 19 7 C19 11 19 11 17.65478516 12.83105469 C17.03909668 13.43852539 16.4234082 14.04599609 15.7890625 14.671875 C15.12132812 15.33574219 14.45359375 15.99960937 13.765625 16.68359375 C13.05921875 17.36550781 12.3528125 18.04742187 11.625 18.75 C10.92632812 19.44738281 10.22765625 20.14476563 9.5078125 20.86328125 C4.28062317 26 4.28062317 26 2 26 C1.34 17.42 0.68 8.84 0 0 Z " fill="#000000" transform="translate(35,34)"/>
<path d="M0 0 C3.27590016 1.2580351 6.54469535 2.53359907 9.8125 3.8125 C10.74126953 4.16892578 11.67003906 4.52535156 12.62695312 4.89257812 C13.51962891 5.24384766 14.41230469 5.59511719 15.33203125 5.95703125 C16.15421143 6.27647705 16.9763916 6.59592285 17.82348633 6.92504883 C20.03816937 8.01885135 21.37806664 9.1578324 23 11 C20.92084841 12.79672348 18.83699349 14.58742527 16.75 16.375 C16.16347656 16.88289063 15.57695313 17.39078125 14.97265625 17.9140625 C14.39902344 18.40390625 13.82539062 18.89375 13.234375 19.3984375 C12.44885254 20.07398682 12.44885254 20.07398682 11.64746094 20.76318359 C9.85544056 22.10852669 8.0277463 23.05551741 6 24 C4.98806371 20.94131492 3.9926063 17.87750729 3 14.8125 C2.71382812 13.94818359 2.42765625 13.08386719 2.1328125 12.19335938 C1.86210938 11.35224609 1.59140625 10.51113281 1.3125 9.64453125 C1.06113281 8.87471924 0.80976562 8.10490723 0.55078125 7.31176758 C-0.04716559 4.80203413 -0.09543462 2.57077005 0 0 Z " fill="#000000" transform="translate(53,15)"/>
<path d="M0 0 C1.2113078 8.71709003 2.27574313 17.17621971 2 26 C-3.28 23.36 -8.56 20.72 -14 18 C-14 13.69122533 -13.93477883 13.42944879 -11.19140625 10.546875 C-10.60939453 9.928125 -10.02738281 9.309375 -9.42773438 8.671875 C-8.81220703 8.03765625 -8.19667969 7.4034375 -7.5625 6.75 C-6.95083984 6.1003125 -6.33917969 5.450625 -5.70898438 4.78125 C-1.16378348 0 -1.16378348 0 0 0 Z " fill="#000000" transform="translate(32,35)"/>
<path d="M0 0 C3.68069887 1.53643852 5.98775204 3.78150945 8.75 6.625 C9.54921875 7.44226563 10.3484375 8.25953125 11.171875 9.1015625 C12.07679687 10.04128906 12.07679687 10.04128906 13 11 C11.7080083 13.81236384 10.31751572 15.96818899 8.21484375 18.234375 C7.68439453 18.80800781 7.15394531 19.38164063 6.60742188 19.97265625 C6.05634766 20.55917969 5.50527344 21.14570312 4.9375 21.75 C4.38255859 22.35199219 3.82761719 22.95398438 3.25585938 23.57421875 C1.86137451 25.07231333 0.43343009 26.53912574 -1 28 C-1.33 28 -1.66 28 -2 28 C-1.86132739 23.89555833 -1.71283897 19.7915296 -1.5625 15.6875 C-1.52318359 14.52025391 -1.48386719 13.35300781 -1.44335938 12.15039062 C-1.40146484 11.03212891 -1.35957031 9.91386719 -1.31640625 8.76171875 C-1.27974854 7.73006592 -1.24309082 6.69841309 -1.20532227 5.63549805 C-1 3 -1 3 0 0 Z " fill="#000000" transform="translate(18,19)"/>
<path d="M0 0 C1.00427892 3.45710552 2.0026944 6.91587697 3 10.375 C3.28617188 11.35984375 3.57234375 12.3446875 3.8671875 13.359375 C4.13789062 14.30039062 4.40859375 15.24140625 4.6875 16.2109375 C4.93886719 17.08024902 5.19023438 17.94956055 5.44921875 18.84521484 C6 21 6 21 6 23 C-0.93998648 20.83836487 -7.43117569 18.1063786 -14 15 C-11.84513582 11.15450283 -9.38308926 7.9630729 -6.4375 4.6875 C-5.65246094 3.80449219 -4.86742187 2.92148437 -4.05859375 2.01171875 C-2 0 -2 0 0 0 Z " fill="#000000" transform="translate(50,16)"/>
<path d="M0 0 C1.20282097 2.931458 2.38454273 5.87097242 3.5625 8.8125 C3.90474609 9.64587891 4.24699219 10.47925781 4.59960938 11.33789062 C4.91865234 12.14033203 5.23769531 12.94277344 5.56640625 13.76953125 C5.86490479 14.50792236 6.16340332 15.24631348 6.47094727 16.00708008 C7 18 7 18 6 21 C3.93359375 21.94921875 3.93359375 21.94921875 1.4375 22.6875 C0.61121094 22.93886719 -0.21507813 23.19023438 -1.06640625 23.44921875 C-1.70449219 23.63097656 -2.34257813 23.81273438 -3 24 C-3.83806616 21.06377536 -4.67062444 18.12617933 -5.5 15.1875 C-5.73847656 14.35412109 -5.97695312 13.52074219 -6.22265625 12.66210938 C-6.56103516 11.45844727 -6.56103516 11.45844727 -6.90625 10.23046875 C-7.11572266 9.49207764 -7.32519531 8.75368652 -7.54101562 7.99291992 C-8 6 -8 6 -8 3 C-2.25 0 -2.25 0 0 0 Z " fill="#000000" transform="translate(89,22)"/>
<path d="M0 0 C7.88416983 1.35258896 15.39353334 3.54399352 23 6 C21.57074 9.33002846 19.83357735 11.35827509 17.125 13.75 C16.44695313 14.36359375 15.76890625 14.9771875 15.0703125 15.609375 C13 17 13 17 9 17 C7.20241464 14.55361728 5.72326105 12.25479497 4.25 9.625 C3.83878906 8.92632812 3.42757812 8.22765625 3.00390625 7.5078125 C0 2.31833991 0 2.31833991 0 0 Z " fill="#000000" transform="translate(40,67)"/>
<path d="M0 0 C0.69969682 2.24623699 1.38435043 4.49716414 2.0625 6.75 C2.44535156 8.00296875 2.82820313 9.2559375 3.22265625 10.546875 C3.96515749 13.84522223 3.94299411 14.93306589 3 18 C0.03953084 17.38398318 -2.9180858 16.75766298 -5.875 16.125 C-6.71675781 15.95097656 -7.55851562 15.77695312 -8.42578125 15.59765625 C-9.23144531 15.42363281 -10.03710938 15.24960937 -10.8671875 15.0703125 C-11.61081543 14.91320801 -12.35444336 14.75610352 -13.12060547 14.59423828 C-15 14 -15 14 -17 12 C-14.54800572 9.99212374 -12.08740624 7.99508826 -9.625 6 C-8.57699219 5.14148437 -8.57699219 5.14148437 -7.5078125 4.265625 C-6.8375 3.72421875 -6.1671875 3.1828125 -5.4765625 2.625 C-4.85861816 2.12226563 -4.24067383 1.61953125 -3.60400391 1.1015625 C-2 0 -2 0 0 0 Z " fill="#000000" transform="translate(79,28)"/>
<path d="M0 0 C-3.40991208 5.54110713 -7.61420043 10.20968493 -12 15 C-16.67126797 11.62695042 -21.16089308 8.31899529 -25 4 C-25 3.34 -25 2.68 -25 2 C-21.50773711 0.83591237 -18.42505666 0.66810614 -14.75 0.4375 C-13.46609375 0.35371094 -12.1821875 0.26992187 -10.859375 0.18359375 C-7.2321036 0.01104137 -3.6306361 -0.03292028 0 0 Z " fill="#000000" transform="translate(46,14)"/>
<path d="M0 0 C0.66 0.33 1.32 0.66 2 1 C2.80290607 3.86291691 3.49564777 6.66231937 4.125 9.5625 C4.74375 12.346875 5.3625 15.13125 6 18 C-3.405 18.495 -3.405 18.495 -13 19 C-10.74957118 13.37392796 -10.74957118 13.37392796 -8.65234375 10.703125 C-8.21212891 10.13722656 -7.77191406 9.57132813 -7.31835938 8.98828125 C-6.63483398 8.12783203 -6.63483398 8.12783203 -5.9375 7.25 C-5.47794922 6.66089844 -5.01839844 6.07179688 -4.54492188 5.46484375 C-1.23028274 1.23028274 -1.23028274 1.23028274 0 0 Z " fill="#000000" transform="translate(84,52)"/>
<path d="M0 0 C4.57962746 1.46465563 6.12058736 5.14220969 8.25 9.125 C8.61351563 9.78371094 8.97703125 10.44242188 9.3515625 11.12109375 C10.24423736 12.74200336 11.12345675 14.37031036 12 16 C10 17 10 17 8.02880859 16.37915039 C7.24328613 16.03875732 6.45776367 15.69836426 5.6484375 15.34765625 C4.79765625 14.98349609 3.946875 14.61933594 3.0703125 14.24414062 C2.18085937 13.85419922 1.29140625 13.46425781 0.375 13.0625 C-0.97078125 12.48338867 -0.97078125 12.48338867 -2.34375 11.89257812 C-4.56559754 10.93529275 -6.78405708 9.97085723 -9 9 C-9 8.01 -9 7.02 -9 6 C-7.03125 4.39453125 -7.03125 4.39453125 -4.5 2.8125 C-3.6646875 2.28269531 -2.829375 1.75289063 -1.96875 1.20703125 C-0.99421875 0.60955078 -0.99421875 0.60955078 0 0 Z " fill="#000000" transform="translate(34,67)"/>
<path d="M0 0 C1.09400202 3.42906862 0.96970597 6.29044881 0.66015625 9.859375 C0.56669922 10.97441406 0.47324219 12.08945312 0.37695312 13.23828125 C0.27318359 14.39714844 0.16941406 15.55601563 0.0625 16.75 C-0.03740234 17.92433594 -0.13730469 19.09867188 -0.24023438 20.30859375 C-0.48759865 23.20628956 -0.74107341 26.10331824 -1 29 C-7.27941176 22.82352941 -7.27941176 22.82352941 -9 19 C-8.5784406 14.53459305 -6.64544952 11.13642905 -4.5 7.25 C-3.8709375 6.10015625 -3.241875 4.9503125 -2.59375 3.765625 C-1 1 -1 1 0 0 Z " fill="#000000" transform="translate(14,18)"/>
<path d="M0 0 C5.96652354 1.57013777 10.82909025 4.75029782 16 8 C12.90081787 11.19309674 9.81446409 13.67815229 6 16 C5.34 16 4.68 16 4 16 C3.32815382 13.89748139 2.66269032 11.79292237 2 9.6875 C1.443125 7.92986328 1.443125 7.92986328 0.875 6.13671875 C0 3 0 3 0 0 Z " fill="#000000" transform="translate(17,56)"/>
<path d="M0 0 C2.99220268 1.36370299 5.29026529 2.94908083 7.75 5.125 C8.67039062 5.93324219 8.67039062 5.93324219 9.609375 6.7578125 C10.06828125 7.16773437 10.5271875 7.57765625 11 8 C7.92308234 10.05127844 7.06355001 10.27260872 3.55078125 10.4140625 C2.70322266 10.45273438 1.85566406 10.49140625 0.98242188 10.53125 C-0.33918945 10.57765625 -0.33918945 10.57765625 -1.6875 10.625 C-2.58017578 10.66367188 -3.47285156 10.70234375 -4.39257812 10.7421875 C-6.5948462 10.83640218 -8.79710722 10.92201588 -11 11 C-10.06280291 9.88167191 -9.12198826 8.76637489 -8.1796875 7.65234375 C-7.65616699 7.03093506 -7.13264648 6.40952637 -6.59326172 5.76928711 C-4.59954754 3.55530509 -2.39658203 1.76219267 0 0 Z " fill="#000000" transform="translate(66,75)"/>
<path d="M0 0 C-2.31 3.63 -4.62 7.26 -7 11 C-11.24422283 9.93894429 -12.59936359 8.88293527 -15.75 6 C-16.54921875 5.278125 -17.3484375 4.55625 -18.171875 3.8125 C-18.77515625 3.214375 -19.3784375 2.61625 -20 2 C-20 1.67 -20 1.34 -20 1 C-13.28327457 -0.03334237 -6.79665108 -0.07723467 0 0 Z " fill="#000000" transform="translate(91,73)"/>
<path d="M0 0 C9.9 3.96 9.9 3.96 20 8 C17.63699651 10.36300349 16.4201502 10.51433444 13.1875 11.125 C11.90939453 11.37636719 11.90939453 11.37636719 10.60546875 11.6328125 C8.03156189 11.995552 5.59538412 12.06523407 3 12 C2.49440092 10.56445975 1.9957251 9.1264798 1.5 7.6875 C1.2215625 6.88699219 0.943125 6.08648437 0.65625 5.26171875 C0 3 0 3 0 0 Z " fill="#000000" transform="translate(24,78)"/>
<path d="M0 0 C3.25537019 3.07940424 6.14619454 5.8804323 8 10 C7.86327759 14.92200666 5.06047192 19.60113205 3 24 C2.34 24 1.68 24 1 24 C0.20318916 15.97497656 -0.12867289 8.06350113 0 0 Z " fill="#000000" transform="translate(4,41)"/>
<path d="M0 0 C1.76171875 2.3359375 1.76171875 2.3359375 3.6875 5.375 C4.65236328 6.87160156 4.65236328 6.87160156 5.63671875 8.3984375 C6.31154297 9.68621094 6.31154297 9.68621094 7 11 C6.67 11.66 6.34 12.32 6 13 C-2.415 9.535 -2.415 9.535 -11 6 C-11 5.01 -11 4.02 -11 3 C-9.54293274 2.49632243 -8.08429904 1.99717444 -6.625 1.5 C-5.81289063 1.2215625 -5.00078125 0.943125 -4.1640625 0.65625 C-2 0 -2 0 0 0 Z " fill="#000000" transform="translate(67,8)"/>
<path d="M0 0 C-0.46247533 7.19270839 -1.25077067 14.0030827 -3 21 C-4.9507829 18.07382565 -5.71513462 15.97955419 -6.625 12.625 C-6.88539062 11.68914063 -7.14578125 10.75328125 -7.4140625 9.7890625 C-7.97925133 7.09876365 -8.10954217 4.73855429 -8 2 C-5.09399739 0.74335022 -3.20395416 0 0 0 Z " fill="#000000" transform="translate(96,46)"/>
<path d="M0 0 C2.375 2.5625 2.375 2.5625 4 5 C-0.89154337 6.20516286 -5.80275122 6.33461434 -10.8125 6.5625 C-11.69615234 6.60568359 -12.57980469 6.64886719 -13.49023438 6.69335938 C-15.65999623 6.79891536 -17.8299791 6.89991071 -20 7 C-15.24290017 2.00707518 -6.82437368 -2.99606649 0 0 Z " fill="#000000" transform="translate(41,6)"/>
<path d="M0 0 C1.09731445 0.00676758 1.09731445 0.00676758 2.21679688 0.01367188 C3.99873419 0.02531852 5.78062863 0.04324809 7.5625 0.0625 C4.7023269 2.9226731 1.17065162 3.83995477 -2.5625 5.1875 C-3.69365234 5.60322266 -3.69365234 5.60322266 -4.84765625 6.02734375 C-6.70913121 6.71067 -8.57308602 7.38723389 -10.4375 8.0625 C-15.4375 2.1875 -15.4375 2.1875 -15.4375 1.0625 C-10.23576905 0.19440561 -5.26771184 -0.06265348 0 0 Z " fill="#000000" transform="translate(68.4375,87.9375)"/>
<path d="M0 0 C3 3.44444444 3 3.44444444 3 6 C-1.0018455 5.6865221 -5.00131678 5.35153259 -9 5 C-9.83917969 4.9278125 -10.67835937 4.855625 -11.54296875 4.78125 C-13.37104006 4.59478007 -15.18837724 4.30763405 -17 4 C-17.33 3.34 -17.66 2.68 -18 2 C-15.56421213 1.46969932 -13.12694025 0.95047688 -10.6875 0.4375 C-9.65206055 0.21030273 -9.65206055 0.21030273 -8.59570312 -0.02148438 C-5.24455934 -0.71761569 -3.30465928 -1.10155309 0 0 Z " fill="#000000" transform="translate(51,90)"/>
<path d="M0 0 C3.89006773 1.38780795 6.96558708 3.2152227 10.3125 5.625 C11.19550781 6.25664062 12.07851562 6.88828125 12.98828125 7.5390625 C13.65214844 8.02117188 14.31601563 8.50328125 15 9 C14.67 9.99 14.34 10.98 14 12 C10.9375 13.1875 10.9375 13.1875 8 14 C6.66101601 12.04532248 5.32870953 10.0866421 4 8.125 C3.2575 7.03445312 2.515 5.94390625 1.75 4.8203125 C0 2 0 2 0 0 Z " fill="#000000" transform="translate(71,9)"/>
<path d="M0 0 C1.44096586 0.42594588 2.87768712 0.86626633 4.3125 1.3125 C5.11300781 1.55613281 5.91351563 1.79976563 6.73828125 2.05078125 C9.20955226 3.0879468 10.37862271 3.87676784 12 6 C12.94921875 8.48046875 12.94921875 8.48046875 13.6875 11.1875 C14.06455078 12.53908203 14.06455078 12.53908203 14.44921875 13.91796875 C14.63097656 14.60503906 14.81273437 15.29210937 15 16 C10.7936195 14.39756933 8.18479822 11.26602216 5.25 8 C4.74339844 7.4534375 4.23679687 6.906875 3.71484375 6.34375 C0 2.25842318 0 2.25842318 0 0 Z " fill="#000000" transform="translate(9,72)"/>
<path d="M0 0 C2.31005869 2.31005869 2.72174103 3.83083657 3.625 6.9375 C3.88539062 7.81277344 4.14578125 8.68804687 4.4140625 9.58984375 C5 12 5 12 5 15 C3.51800098 14.55090939 2.03944764 14.09043436 0.5625 13.625 C-0.26121094 13.36976562 -1.08492187 13.11453125 -1.93359375 12.8515625 C-4 12 -4 12 -5 10 C-4.00390625 7.6171875 -4.00390625 7.6171875 -2.5625 4.875 C-1.85287109 3.50988281 -1.85287109 3.50988281 -1.12890625 2.1171875 C-0.75636719 1.41851562 -0.38382813 0.71984375 0 0 Z " fill="#000000" transform="translate(13,57)"/>
<path d="M0 0 C6.44070471 -0.10655578 12.62641289 0.03794912 19 1 C16.4518614 4.11439162 13.87937797 5.08720518 10 6 C6.875 5.9375 6.875 5.9375 4 5 C1.625 2.4375 1.625 2.4375 0 0 Z " fill="#000000" transform="translate(43,4)"/>
</svg>
